<svg width="21" height="16" viewBox="0 0 21 16" fill="none" xmlns="http://www.w3.org/2000/svg">
<path d="M0 15.7238H4V7.51983H0V15.7238ZM19 11.9947H12L9.91 11.4503L10.24 10.7492L12 11.2489H14.82C15.47 11.2489 16 10.8536 16 10.3688C16 10.0034 15.69 9.67523 15.23 9.54099L7.97 7.51983H6V14.2471L13 15.7238L21 13.4864C20.99 12.666 20.11 11.9947 19 11.9947ZM13 0.43457L6 4.16365V6.02819H8L16.14 8.45955C17.26 8.79517 18 9.60065 18 10.5031H20V4.16365L13 0.43457ZM12.5 6.77401H11.5V6.02819H12.5V6.77401ZM12.5 5.28238H11.5V4.53656H12.5V5.28238ZM14.5 6.77401H13.5V6.02819H14.5V6.77401ZM14.5 5.28238H13.5V4.53656H14.5V5.28238Z" fill="#38A6FB"/>
</svg>
